<svg xmlns="http://www.w3.org/2000/svg" width="16" height="16">
  <path d="M8,16c-4.411,0-8-3.589-8-8s3.589-8,8-8s8,3.589,8,8S12.411,16,8,16z" fill="#8000d7"/>
  <path d="M11.794 4.986h-1.297a2.31 2.31 0 0 0-1.808.873h0A.88.88 0 0 1 8 6.192h0a.88.88 0 0 1-.69-.333h0a2.31 2.31 0 0 0-1.808-.873H4.206C3.54 4.986 3 5.526 3 6.192v2.004c0 1.008.504 1.949 1.343 2.508l.162.108c.198.132.431.203.669.203h.339c.253 0 .5-.08.705-.228l1.126-.812a.88.88 0 0 1 .515-.166h.282a.88.88 0 0 1 .515.166l1.126.812c.205.148.452.228.705.228h.339a1.2 1.2 0 0 0 .669-.203l.162-.108C12.496 10.145 13 9.203 13 8.195V6.192c0-.666-.54-1.206-1.206-1.206z" fill="#fff"/>
  <path d="M6.874 8.186c-.32.362-.816.595-1.374.595s-1.054-.233-1.374-.594a.52.52 0 0 1 0-.678c.32-.363.816-.595 1.374-.595s1.054.233 1.374.594a.52.52 0 0 1 0 .678zm2.252 0c.32.362.816.594 1.374.594s1.054-.233 1.374-.594a.52.52 0 0 0 0-.678c-.32-.362-.816-.594-1.374-.594s-1.054.233-1.374.594a.52.52 0 0 0 0 .678z" fill="#8000d7"/>
</svg>