<svg xmlns="http://www.w3.org/2000/svg" width="96" height="96" viewBox="0,0 96,96" stroke="black">
  <rect x="08" y="24" width="64" height="48" rx="15" stroke-width="10" fill="none" />
	<path d="M 8.9 1.9 l 1.4 3.5 l 3.8 0.2 c 0.9 0.1 1.3 1.2 0.6 1.8 L 11.8 9.8 l 0.9 3.7 c 0.2 0.9 -0.7 1.6 -1.5 1.1 L 8 12.6 l -3.2 2 c -0.8 0.5 -1.7 -0.2 -1.5 -1.1 l 0.9 -3.7 L 1.3 7.4 C 0.6 6.8 1 5.7 1.9 5.6 L 5.7 5.4 L 7.1 1.9 C 7.4 1 8.6 1 8.9 1.9 z" transform="matrix(3.5 0 0 3.5 40 32)" fill="white" stroke-width="2" stroke-linejoin="round" />
</svg>
